<svg width="32" height="32" viewBox="0 0 32 32" fill="none" xmlns="http://www.w3.org/2000/svg">
    <path d="M10.3094 8.4C8.85959 8.4 7.68436 9.4746 7.68436 10.8C7.68436 12.1254 8.85959 13.2 10.3094 13.2C11.7591 13.2 12.9344 12.1254 12.9344 10.8C12.9344 9.4746 11.7591 8.4 10.3094 8.4ZM26.4961 4H5.49609C3.56311 4 1.99609 5.4326 1.99609 7.2V23.2C1.99609 24.9673 3.56311 26.4 5.49609 26.4H26.4961C28.4292 26.4 29.9961 24.9673 29.9961 23.2V7.2C29.9961 5.4326 28.4292 4 26.4961 4ZM27.3711 22.8651L19.8914 13.5689C19.706 13.3384 19.3938 13.2 19.0594 13.2C18.725 13.2 18.4128 13.3384 18.2274 13.5689L12.3958 20.8169L10.3673 18.5118C10.1791 18.2978 9.8788 18.1714 9.55943 18.1714C9.23995 18.1714 8.9396 18.2978 8.75137 18.5118L4.62208 23.2042C4.62208 23.2027 4.62109 23.2014 4.62109 23.2V7.2C4.62109 6.7589 5.01364 6.4 5.49609 6.4H26.4961C26.9785 6.4 27.3711 6.7589 27.3711 7.2V22.8651Z" fill="#000C37"/>
</svg>
