<svg width="11" height="13" viewBox="0 0 11 13" fill="none" xmlns="http://www.w3.org/2000/svg">
    <g clip-path="url(#clip0_4483_902)">
        <path d="M5.49931 12.5714C6.36655 12.5714 7.07001 11.868 7.07001 11H3.92862C3.92862 11.868 4.63208 12.5714 5.49931 12.5714ZM10.7879 8.89551C10.3135 8.38578 9.42592 7.61897 9.42592 5.10714C9.42592 3.19933 8.08824 1.6721 6.28454 1.29741V0.785714C6.28454 0.351853 5.93293 0 5.49931 0C5.0657 0 4.71409 0.351853 4.71409 0.785714V1.29741C2.91039 1.6721 1.57271 3.19933 1.57271 5.10714C1.57271 7.61897 0.685096 8.38578 0.210721 8.89551C0.0633999 9.05388 -0.00191261 9.24319 -0.000684928 9.42857C0.00201596 9.83125 0.31802 10.2143 0.787485 10.2143H10.2111C10.6806 10.2143 10.9969 9.83125 10.9993 9.42857C11.0005 9.24319 10.9352 9.05364 10.7879 8.89551Z" fill="white"/>
    </g>
    <defs>
        <clipPath id="clip0_4483_902">
            <rect width="11" height="12.5714" fill="white"/>
        </clipPath>
    </defs>
</svg>
