<svg width="20" height="20" viewBox="0 0 20 20" fill="none" xmlns="http://www.w3.org/2000/svg">
    <path d="M16 5H13.75L13.4866 4.29772C13.1939 3.51716 12.4477 3 11.614 3H8.38703C7.55425 3 6.80859 3.516 6.51519 4.29541L6.25 5H4C2.89544 5 2 5.89538 2 7V15C2 16.1046 2.89544 17 4 17H16C17.1046 17 18 16.1046 18 15V7C18 5.89538 17.1046 5 16 5ZM16.5 15C16.5 15.2757 16.2757 15.5 16 15.5H4C3.72431 15.5 3.5 15.2757 3.5 15V7C3.5 6.72431 3.72431 6.5 4 6.5H7.28816L7.65387 5.52844L7.91906 4.82384C7.99194 4.63012 8.18006 4.5 8.38703 4.5H11.614C11.8212 4.5 12.0094 4.63037 12.0822 4.82441L12.3455 5.52669L12.7105 6.5H16C16.2757 6.5 16.5 6.72431 16.5 7V15ZM10 7.5C8.06703 7.5 6.5 9.06697 6.5 11C6.5 12.933 8.06703 14.5 10 14.5C11.933 14.5 13.5 12.933 13.5 11C13.5 9.06697 11.933 7.5 10 7.5ZM10 13C8.89722 13 8 12.1028 8 11C8 9.89716 8.89722 9 10 9C11.1028 9 12 9.89716 12 11C12 12.1028 11.1028 13 10 13Z" fill="white"/>
</svg>
