<svg width="20" height="20" viewBox="0 0 20 20" fill="none" xmlns="http://www.w3.org/2000/svg">
    <path d="M11.1786 14.375H11.8214C11.9067 14.375 11.9884 14.3404 12.0487 14.2789C12.109 14.2174 12.1429 14.1339 12.1429 14.0469V8.14062C12.1429 8.0536 12.109 7.97014 12.0487 7.90861C11.9884 7.84707 11.9067 7.8125 11.8214 7.8125H11.1786C11.0933 7.8125 11.0116 7.84707 10.9513 7.90861C10.891 7.97014 10.8571 8.0536 10.8571 8.14062V14.0469C10.8571 14.1339 10.891 14.2174 10.9513 14.2789C11.0116 14.3404 11.0933 14.375 11.1786 14.375ZM15.5714 5.1875H13.364L12.4533 3.63711C12.339 3.4427 12.1773 3.28183 11.984 3.17018C11.7907 3.05852 11.5724 2.99989 11.3503 3H8.64973C8.42772 2.99999 8.20948 3.05866 8.01628 3.17031C7.82307 3.28196 7.66148 3.44278 7.54723 3.63711L6.63598 5.1875H4.42857C4.31491 5.1875 4.2059 5.23359 4.12553 5.31564C4.04515 5.39769 4 5.50897 4 5.625V6.0625C4 6.17853 4.04515 6.28981 4.12553 6.37186C4.2059 6.45391 4.31491 6.5 4.42857 6.5H4.85714V15.6875C4.85714 16.0356 4.9926 16.3694 5.23372 16.6156C5.47484 16.8617 5.80186 17 6.14286 17H13.8571C14.1981 17 14.5252 16.8617 14.7663 16.6156C15.0074 16.3694 15.1429 16.0356 15.1429 15.6875V6.5H15.5714C15.6851 6.5 15.7941 6.45391 15.8745 6.37186C15.9548 6.28981 16 6.17853 16 6.0625V5.625C16 5.50897 15.9548 5.39769 15.8745 5.31564C15.7941 5.23359 15.6851 5.1875 15.5714 5.1875ZM8.60286 4.39207C8.61718 4.36773 8.63745 4.34761 8.66167 4.33366C8.6859 4.31971 8.71326 4.31242 8.74107 4.3125H11.2589C11.2867 4.31247 11.314 4.31978 11.3382 4.33373C11.3624 4.34767 11.3826 4.36777 11.3969 4.39207L11.8646 5.1875H8.13545L8.60286 4.39207ZM13.8571 15.6875H6.14286V6.5H13.8571V15.6875ZM8.17857 14.375H8.82143C8.90668 14.375 8.98843 14.3404 9.04871 14.2789C9.10899 14.2174 9.14286 14.1339 9.14286 14.0469V8.14062C9.14286 8.0536 9.10899 7.97014 9.04871 7.90861C8.98843 7.84707 8.90668 7.8125 8.82143 7.8125H8.17857C8.09332 7.8125 8.01157 7.84707 7.95129 7.90861C7.89101 7.97014 7.85714 8.0536 7.85714 8.14062V14.0469C7.85714 14.1339 7.89101 14.2174 7.95129 14.2789C8.01157 14.3404 8.09332 14.375 8.17857 14.375Z" fill="white"/>
</svg>
